%TF.GenerationSoftware,KiCad,Pcbnew,7.0.1*%
%TF.CreationDate,2023-04-06T19:52:14-04:00*%
%TF.ProjectId,KiwiBoard,4b697769-426f-4617-9264-2e6b69636164,rev?*%
%TF.SameCoordinates,Original*%
%TF.FileFunction,Copper,L1,Top*%
%TF.FilePolarity,Positive*%
%FSLAX46Y46*%
G04 Gerber Fmt 4.6, Leading zero omitted, Abs format (unit mm)*
G04 Created by KiCad (PCBNEW 7.0.1) date 2023-04-06 19:52:14*
%MOMM*%
%LPD*%
G01*
G04 APERTURE LIST*
G04 Aperture macros list*
%AMRoundRect*
0 Rectangle with rounded corners*
0 $1 Rounding radius*
0 $2 $3 $4 $5 $6 $7 $8 $9 X,Y pos of 4 corners*
0 Add a 4 corners polygon primitive as box body*
4,1,4,$2,$3,$4,$5,$6,$7,$8,$9,$2,$3,0*
0 Add four circle primitives for the rounded corners*
1,1,$1+$1,$2,$3*
1,1,$1+$1,$4,$5*
1,1,$1+$1,$6,$7*
1,1,$1+$1,$8,$9*
0 Add four rect primitives between the rounded corners*
20,1,$1+$1,$2,$3,$4,$5,0*
20,1,$1+$1,$4,$5,$6,$7,0*
20,1,$1+$1,$6,$7,$8,$9,0*
20,1,$1+$1,$8,$9,$2,$3,0*%
G04 Aperture macros list end*
%TA.AperFunction,ComponentPad*%
%ADD10RoundRect,0.250000X-0.650000X-1.400000X0.650000X-1.400000X0.650000X1.400000X-0.650000X1.400000X0*%
%TD*%
%TA.AperFunction,ComponentPad*%
%ADD11O,1.800000X3.300000*%
%TD*%
%TA.AperFunction,ComponentPad*%
%ADD12C,1.590000*%
%TD*%
%TA.AperFunction,ComponentPad*%
%ADD13R,1.050000X1.500000*%
%TD*%
%TA.AperFunction,ComponentPad*%
%ADD14O,1.050000X1.500000*%
%TD*%
%TA.AperFunction,ComponentPad*%
%ADD15RoundRect,0.250000X-0.350000X-0.625000X0.350000X-0.625000X0.350000X0.625000X-0.350000X0.625000X0*%
%TD*%
%TA.AperFunction,ComponentPad*%
%ADD16O,1.200000X1.750000*%
%TD*%
%TA.AperFunction,ComponentPad*%
%ADD17R,1.600000X1.600000*%
%TD*%
%TA.AperFunction,ComponentPad*%
%ADD18C,1.600000*%
%TD*%
%TA.AperFunction,ComponentPad*%
%ADD19R,1.905000X2.000000*%
%TD*%
%TA.AperFunction,ComponentPad*%
%ADD20O,1.905000X2.000000*%
%TD*%
%TA.AperFunction,ComponentPad*%
%ADD21O,1.600000X1.600000*%
%TD*%
%TA.AperFunction,ComponentPad*%
%ADD22C,5.600000*%
%TD*%
%TA.AperFunction,ComponentPad*%
%ADD23R,1.524000X1.524000*%
%TD*%
%TA.AperFunction,ComponentPad*%
%ADD24C,1.524000*%
%TD*%
%TA.AperFunction,ComponentPad*%
%ADD25O,1.700000X1.700000*%
%TD*%
%TA.AperFunction,SMDPad,CuDef*%
%ADD26R,1.700000X3.500000*%
%TD*%
%TA.AperFunction,ComponentPad*%
%ADD27R,1.700000X1.700000*%
%TD*%
%TA.AperFunction,SMDPad,CuDef*%
%ADD28R,3.500000X1.700000*%
%TD*%
%TA.AperFunction,ComponentPad*%
%ADD29R,2.300000X1.500000*%
%TD*%
%TA.AperFunction,ComponentPad*%
%ADD30O,2.300000X1.500000*%
%TD*%
%TA.AperFunction,ComponentPad*%
%ADD31R,2.500000X2.500000*%
%TD*%
%TA.AperFunction,ComponentPad*%
%ADD32O,2.500000X2.500000*%
%TD*%
%TA.AperFunction,Conductor*%
%ADD33C,1.000000*%
%TD*%
%TA.AperFunction,Conductor*%
%ADD34C,0.250000*%
%TD*%
%TA.AperFunction,Conductor*%
%ADD35C,0.500000*%
%TD*%
%TA.AperFunction,Conductor*%
%ADD36C,0.800000*%
%TD*%
%TA.AperFunction,Conductor*%
%ADD37C,2.000000*%
%TD*%
G04 APERTURE END LIST*
D10*
%TO.P,J4B1,1,Pin_1*%
%TO.N,B-*%
X52658000Y-98480000D03*
X52658000Y-106680000D03*
D11*
%TO.P,J4B1,2,Pin_2*%
%TO.N,B+*%
X57658000Y-98480000D03*
X57658000Y-106680000D03*
%TD*%
D10*
%TO.P,J4A1,1,Pin_1*%
%TO.N,A-*%
X65688000Y-98422500D03*
X65688000Y-106622500D03*
D11*
%TO.P,J4A1,2,Pin_2*%
%TO.N,A+*%
X70688000Y-98422500D03*
X70688000Y-106622500D03*
%TD*%
D10*
%TO.P,J1,1,Pin_1*%
%TO.N,GND*%
X78642000Y-98422500D03*
X78642000Y-106622500D03*
D11*
%TO.P,J1,2,Pin_2*%
%TO.N,VCC*%
X83642000Y-98422500D03*
X83642000Y-106622500D03*
%TD*%
D12*
%TO.P,F1,1*%
%TO.N,VCC*%
X90232000Y-105166000D03*
%TO.P,F1,2*%
%TO.N,+12V*%
X91632000Y-100066000D03*
%TD*%
D13*
%TO.P,Q1,1,E*%
%TO.N,GND*%
X90678000Y-71734000D03*
D14*
%TO.P,Q1,2,B*%
%TO.N,Net-(Q1-B)*%
X91948000Y-71734000D03*
%TO.P,Q1,3,C*%
%TO.N,Net-(D1-A)*%
X93218000Y-71734000D03*
%TD*%
D15*
%TO.P,J5,1,Pin_1*%
%TO.N,GND*%
X110744000Y-44704000D03*
D16*
%TO.P,J5,2,Pin_2*%
%TO.N,+3.3V*%
X112744000Y-44704000D03*
%TO.P,J5,3,Pin_3*%
%TO.N,SDA*%
X114744000Y-44704000D03*
%TO.P,J5,4,Pin_4*%
%TO.N,SLC*%
X116744000Y-44704000D03*
%TO.P,J5,5*%
%TO.N,N/C*%
X118744000Y-44704000D03*
%TD*%
D17*
%TO.P,C4,1*%
%TO.N,+12V*%
X92710000Y-91810651D03*
D18*
%TO.P,C4,2*%
%TO.N,GND*%
X92710000Y-86810651D03*
%TD*%
%TO.P,C3,1*%
%TO.N,+3.3V*%
X51856000Y-68580000D03*
%TO.P,C3,2*%
%TO.N,GND*%
X56856000Y-68580000D03*
%TD*%
%TO.P,C1,1*%
%TO.N,+12V*%
X85344000Y-91948000D03*
%TO.P,C1,2*%
%TO.N,GND*%
X80344000Y-91948000D03*
%TD*%
D19*
%TO.P,Q2,1,B*%
%TO.N,Net-(Q2-B)*%
X113284000Y-91623000D03*
D20*
%TO.P,Q2,2,C*%
%TO.N,FAN_GND*%
X115824000Y-91623000D03*
%TO.P,Q2,3,E*%
%TO.N,GND*%
X118364000Y-91623000D03*
%TD*%
D18*
%TO.P,C2,1*%
%TO.N,+12V*%
X85344000Y-88392000D03*
%TO.P,C2,2*%
%TO.N,GND*%
X80344000Y-88392000D03*
%TD*%
%TO.P,R1,1*%
%TO.N,Net-(Q1-B)*%
X87630000Y-82296000D03*
D21*
%TO.P,R1,2*%
%TO.N,HEATER_CTL*%
X87630000Y-74676000D03*
%TD*%
D17*
%TO.P,D1,1,K*%
%TO.N,Net-(D1-K)*%
X107950000Y-66294000D03*
D21*
%TO.P,D1,2,A*%
%TO.N,Net-(D1-A)*%
X115570000Y-66294000D03*
%TD*%
D10*
%TO.P,J3,1,Pin_1*%
%TO.N,FAN_GND*%
X111840000Y-98298000D03*
X111840000Y-106498000D03*
D11*
%TO.P,J3,2,Pin_2*%
%TO.N,+12V*%
X116840000Y-98298000D03*
X116840000Y-106498000D03*
%TD*%
D22*
%TO.P,REF\u002A\u002A,1*%
%TO.N,N/C*%
X46000000Y-41000000D03*
%TD*%
D23*
%TO.P,U4,JP1_1,DIR*%
%TO.N,unconnected-(U4-DIR-PadJP1_1)*%
X53848000Y-72898000D03*
D24*
%TO.P,U4,JP1_2,STEP*%
%TO.N,unconnected-(U4-STEP-PadJP1_2)*%
X56388000Y-72898000D03*
%TO.P,U4,JP1_3*%
%TO.N,N/C*%
X58928000Y-72898000D03*
%TO.P,U4,JP1_4,SDO*%
%TO.N,MISO*%
X61468000Y-72898000D03*
%TO.P,U4,JP1_5,CS*%
%TO.N,SS*%
X64008000Y-72898000D03*
%TO.P,U4,JP1_6,SCK*%
%TO.N,SCLK*%
X66548000Y-72898000D03*
%TO.P,U4,JP1_7,SDI*%
%TO.N,MOSI*%
X69088000Y-72898000D03*
%TO.P,U4,JP1_8,EN*%
%TO.N,MOTOR_EN*%
X71628000Y-72898000D03*
D23*
%TO.P,U4,JP2_1,VM*%
%TO.N,+12V*%
X71628000Y-85598000D03*
D24*
%TO.P,U4,JP2_2,GND*%
%TO.N,GND*%
X69088000Y-85598000D03*
%TO.P,U4,JP2_3,OA2*%
%TO.N,A+*%
X66548000Y-85598000D03*
%TO.P,U4,JP2_4,OA1*%
%TO.N,A-*%
X64008000Y-85598000D03*
%TO.P,U4,JP2_5,OB1*%
%TO.N,B+*%
X61468000Y-85598000D03*
%TO.P,U4,JP2_6,OB2*%
%TO.N,B-*%
X58928000Y-85598000D03*
%TO.P,U4,JP2_7,VIO*%
%TO.N,+3.3V*%
X56388000Y-85598000D03*
%TO.P,U4,JP2_8,GND*%
%TO.N,GND*%
X53848000Y-85598000D03*
%TO.P,U4,JP3_1,DIAG*%
%TO.N,unconnected-(U4-DIAG-PadJP3_1)*%
X71628000Y-77978000D03*
%TO.P,U4,JP3_2,INDEX*%
%TO.N,unconnected-(U4-INDEX-PadJP3_2)*%
X71628000Y-75438000D03*
%TO.P,U4,VREF,VREF*%
%TO.N,unconnected-(U4-PadVREF)*%
X69977000Y-76708000D03*
%TD*%
D18*
%TO.P,R3,1*%
%TO.N,Net-(Q2-B)*%
X115824000Y-57658000D03*
D21*
%TO.P,R3,2*%
%TO.N,FAN_CTL*%
X108204000Y-57658000D03*
%TD*%
D25*
%TO.P,U1,1,GPIO0*%
%TO.N,EXT1*%
X55118000Y-61468000D03*
D26*
X55118000Y-62368000D03*
D25*
%TO.P,U1,2,GPIO1*%
%TO.N,EXT2*%
X57658000Y-61468000D03*
D26*
X57658000Y-62368000D03*
D27*
%TO.P,U1,3,GND*%
%TO.N,GND*%
X60198000Y-61468000D03*
D26*
X60198000Y-62368000D03*
D25*
%TO.P,U1,4,GPIO2*%
%TO.N,EXT3*%
X62738000Y-61468000D03*
D26*
X62738000Y-62368000D03*
D25*
%TO.P,U1,5,GPIO3*%
%TO.N,EXT4*%
X65278000Y-61468000D03*
D26*
X65278000Y-62368000D03*
D25*
%TO.P,U1,6,GPIO4*%
%TO.N,SDA*%
X67818000Y-61468000D03*
D26*
X67818000Y-62368000D03*
D25*
%TO.P,U1,7,GPIO5*%
%TO.N,SLC*%
X70358000Y-61468000D03*
D26*
X70358000Y-62368000D03*
D27*
%TO.P,U1,8,GND*%
%TO.N,GND*%
X72898000Y-61468000D03*
D26*
X72898000Y-62368000D03*
D25*
%TO.P,U1,9,GPIO6*%
%TO.N,unconnected-(U1-GPIO6-Pad9)*%
X75438000Y-61468000D03*
D26*
X75438000Y-62368000D03*
D25*
%TO.P,U1,10,GPIO7*%
%TO.N,unconnected-(U1-GPIO7-Pad10)*%
X77978000Y-61468000D03*
D26*
X77978000Y-62368000D03*
D25*
%TO.P,U1,11,GPIO8*%
%TO.N,unconnected-(U1-GPIO8-Pad11)*%
X80518000Y-61468000D03*
D26*
X80518000Y-62368000D03*
D25*
%TO.P,U1,12,GPIO9*%
%TO.N,MOTOR_EN*%
X83058000Y-61468000D03*
D26*
X83058000Y-62368000D03*
D27*
%TO.P,U1,13,GND*%
%TO.N,GND*%
X85598000Y-61468000D03*
D26*
X85598000Y-62368000D03*
D25*
%TO.P,U1,14,GPIO10*%
%TO.N,SCLK*%
X88138000Y-61468000D03*
D26*
X88138000Y-62368000D03*
D25*
%TO.P,U1,15,GPIO11*%
%TO.N,MOSI*%
X90678000Y-61468000D03*
D26*
X90678000Y-62368000D03*
D25*
%TO.P,U1,16,GPIO12*%
%TO.N,MISO*%
X93218000Y-61468000D03*
D26*
X93218000Y-62368000D03*
D25*
%TO.P,U1,17,GPIO13*%
%TO.N,SS*%
X95758000Y-61468000D03*
D26*
X95758000Y-62368000D03*
D27*
%TO.P,U1,18,GND*%
%TO.N,GND*%
X98298000Y-61468000D03*
D26*
X98298000Y-62368000D03*
D25*
%TO.P,U1,19,GPIO14*%
%TO.N,FAN_CTL*%
X100838000Y-61468000D03*
D26*
X100838000Y-62368000D03*
D25*
%TO.P,U1,20,GPIO15*%
%TO.N,HEATER_CTL*%
X103378000Y-61468000D03*
D26*
X103378000Y-62368000D03*
D25*
%TO.P,U1,21,GPIO16*%
%TO.N,ENC2*%
X103378000Y-43688000D03*
D26*
X103378000Y-42788000D03*
D25*
%TO.P,U1,22,GPIO17*%
%TO.N,ENC1*%
X100838000Y-43688000D03*
D26*
X100838000Y-42788000D03*
D27*
%TO.P,U1,23,GND*%
%TO.N,GND*%
X98298000Y-43688000D03*
D26*
X98298000Y-42788000D03*
D25*
%TO.P,U1,24,GPIO18*%
%TO.N,BTN*%
X95758000Y-43688000D03*
D26*
X95758000Y-42788000D03*
D25*
%TO.P,U1,25,GPIO19*%
%TO.N,unconnected-(U1-GPIO19-Pad25)*%
X93218000Y-43688000D03*
D26*
X93218000Y-42788000D03*
D25*
%TO.P,U1,26,GPIO20*%
%TO.N,unconnected-(U1-GPIO20-Pad26)*%
X90678000Y-43688000D03*
D26*
X90678000Y-42788000D03*
D25*
%TO.P,U1,27,GPIO21*%
%TO.N,unconnected-(U1-GPIO21-Pad27)*%
X88138000Y-43688000D03*
D26*
X88138000Y-42788000D03*
D27*
%TO.P,U1,28,GND*%
%TO.N,GND*%
X85598000Y-43688000D03*
D26*
X85598000Y-42788000D03*
D25*
%TO.P,U1,29,GPIO22*%
%TO.N,unconnected-(U1-GPIO22-Pad29)*%
X83058000Y-43688000D03*
D26*
X83058000Y-42788000D03*
D25*
%TO.P,U1,30,RUN*%
%TO.N,unconnected-(U1-RUN-Pad30)*%
X80518000Y-43688000D03*
D26*
X80518000Y-42788000D03*
D25*
%TO.P,U1,31,GPIO26_ADC0*%
%TO.N,unconnected-(U1-GPIO26_ADC0-Pad31)*%
X77978000Y-43688000D03*
D26*
X77978000Y-42788000D03*
D25*
%TO.P,U1,32,GPIO27_ADC1*%
%TO.N,unconnected-(U1-GPIO27_ADC1-Pad32)*%
X75438000Y-43688000D03*
D26*
X75438000Y-42788000D03*
D27*
%TO.P,U1,33,AGND*%
%TO.N,GND*%
X72898000Y-43688000D03*
D26*
X72898000Y-42788000D03*
D25*
%TO.P,U1,34,GPIO28_ADC2*%
%TO.N,unconnected-(U1-GPIO28_ADC2-Pad34)*%
X70358000Y-43688000D03*
D26*
X70358000Y-42788000D03*
D25*
%TO.P,U1,35,ADC_VREF*%
%TO.N,unconnected-(U1-ADC_VREF-Pad35)*%
X67818000Y-43688000D03*
D26*
X67818000Y-42788000D03*
D25*
%TO.P,U1,36,3V3*%
%TO.N,unconnected-(U1-3V3-Pad36)*%
X65278000Y-43688000D03*
D26*
X65278000Y-42788000D03*
D25*
%TO.P,U1,37,3V3_EN*%
%TO.N,unconnected-(U1-3V3_EN-Pad37)*%
X62738000Y-43688000D03*
D26*
X62738000Y-42788000D03*
D27*
%TO.P,U1,38,GND*%
%TO.N,GND*%
X60198000Y-43688000D03*
D26*
X60198000Y-42788000D03*
D25*
%TO.P,U1,39,VSYS*%
%TO.N,+3.3V*%
X57658000Y-43688000D03*
D26*
X57658000Y-42788000D03*
D25*
%TO.P,U1,40,VBUS*%
%TO.N,unconnected-(U1-VBUS-Pad40)*%
X55118000Y-43688000D03*
D26*
X55118000Y-42788000D03*
D25*
%TO.P,U1,41,SWCLK*%
%TO.N,unconnected-(U1-SWCLK-Pad41)*%
X103148000Y-55118000D03*
D28*
X104048000Y-55118000D03*
D27*
%TO.P,U1,42,GND*%
%TO.N,unconnected-(U1-GND-Pad42)*%
X103148000Y-52578000D03*
D28*
X104048000Y-52578000D03*
D25*
%TO.P,U1,43,SWDIO*%
%TO.N,unconnected-(U1-SWDIO-Pad43)*%
X103148000Y-50038000D03*
D28*
X104048000Y-50038000D03*
%TD*%
D22*
%TO.P,REF\u002A\u002A,1*%
%TO.N,N/C*%
X126000000Y-41000000D03*
%TD*%
D10*
%TO.P,J2,1,Pin_1*%
%TO.N,GND*%
X97184000Y-98422500D03*
X97184000Y-106622500D03*
D11*
%TO.P,J2,2,Pin_2*%
%TO.N,HEATER_OUT*%
X102184000Y-98422500D03*
X102184000Y-106622500D03*
%TD*%
D22*
%TO.P,REF\u002A\u002A,1*%
%TO.N,N/C*%
X46000000Y-112000000D03*
%TD*%
D27*
%TO.P,J7,1,Pin_1*%
%TO.N,GND*%
X61468000Y-67818000D03*
D25*
%TO.P,J7,2,Pin_2*%
%TO.N,+3.3V*%
X64008000Y-67818000D03*
%TO.P,J7,3,Pin_3*%
%TO.N,EXT1*%
X66548000Y-67818000D03*
%TO.P,J7,4,Pin_4*%
%TO.N,EXT2*%
X69088000Y-67818000D03*
%TO.P,J7,5,Pin_5*%
%TO.N,EXT3*%
X71628000Y-67818000D03*
%TO.P,J7,6,Pin_6*%
%TO.N,EXT4*%
X74168000Y-67818000D03*
%TD*%
D15*
%TO.P,J6,1,Pin_1*%
%TO.N,GND*%
X110872000Y-51816000D03*
D16*
%TO.P,J6,2,Pin_2*%
%TO.N,+3.3V*%
X112872000Y-51816000D03*
%TO.P,J6,3,Pin_3*%
%TO.N,BTN*%
X114872000Y-51816000D03*
%TO.P,J6,4,Pin_4*%
%TO.N,ENC1*%
X116872000Y-51816000D03*
%TO.P,J6,5,Pin_5*%
%TO.N,ENC2*%
X118872000Y-51816000D03*
%TD*%
D29*
%TO.P,U2,1,IN*%
%TO.N,+12V*%
X81000000Y-80933000D03*
D30*
%TO.P,U2,2,GND*%
%TO.N,GND*%
X81000000Y-78393000D03*
%TO.P,U2,3,OUT*%
%TO.N,+3.3V*%
X81000000Y-75853000D03*
%TD*%
D22*
%TO.P,REF\u002A\u002A,1*%
%TO.N,N/C*%
X126000000Y-112000000D03*
%TD*%
D31*
%TO.P,K1,1*%
%TO.N,+12V*%
X101354500Y-76962000D03*
D32*
%TO.P,K1,2*%
%TO.N,Net-(D1-A)*%
X103354500Y-82962000D03*
%TO.P,K1,3*%
%TO.N,HEATER_OUT*%
X115554500Y-82962000D03*
%TO.P,K1,4*%
%TO.N,unconnected-(K1-Pad4)*%
X115554500Y-70962000D03*
%TO.P,K1,5*%
%TO.N,Net-(D1-K)*%
X103354500Y-70962000D03*
%TD*%
D18*
%TO.P,R2,1*%
%TO.N,+3.3V*%
X115570000Y-61722000D03*
D21*
%TO.P,R2,2*%
%TO.N,Net-(D1-K)*%
X107950000Y-61722000D03*
%TD*%
D33*
%TO.N,A-*%
X65786000Y-106524500D02*
X65688000Y-106622500D01*
X65786000Y-98520500D02*
X65786000Y-106524500D01*
X65688000Y-98422500D02*
X65786000Y-98520500D01*
X65688000Y-94644000D02*
X65688000Y-98422500D01*
X64008000Y-92964000D02*
X65688000Y-94644000D01*
X64008000Y-85598000D02*
X64008000Y-92964000D01*
%TO.N,A+*%
X66548000Y-91186000D02*
X70688000Y-95326000D01*
X66548000Y-85598000D02*
X66548000Y-91186000D01*
X70688000Y-95326000D02*
X70688000Y-105860500D01*
%TO.N,B-*%
X52658000Y-95932000D02*
X52658000Y-106680000D01*
X58928000Y-89662000D02*
X52658000Y-95932000D01*
X58928000Y-85598000D02*
X58928000Y-89662000D01*
%TO.N,B+*%
X57658000Y-95758000D02*
X57658000Y-106680000D01*
X61468000Y-85598000D02*
X61468000Y-91948000D01*
X61468000Y-91948000D02*
X57658000Y-95758000D01*
D34*
%TO.N,+3.3V*%
X51856000Y-70104000D02*
X51856000Y-68580000D01*
X61722000Y-70104000D02*
X51856000Y-70104000D01*
X64008000Y-67818000D02*
X61722000Y-70104000D01*
D33*
%TO.N,+12V*%
X82471500Y-85598000D02*
X85090000Y-85598000D01*
D35*
X116840000Y-98298000D02*
X116840000Y-106498000D01*
D36*
X92572651Y-91948000D02*
X92710000Y-91810651D01*
D35*
X93472000Y-109728000D02*
X93472000Y-103124000D01*
D33*
X85344000Y-85852000D02*
X85344000Y-88392000D01*
D37*
X97282000Y-91810651D02*
X97282000Y-76962000D01*
D33*
X81280000Y-85598000D02*
X81280000Y-81213000D01*
D37*
X92710000Y-91810651D02*
X97282000Y-91810651D01*
X91632000Y-100066000D02*
X92710000Y-98988000D01*
X97282000Y-76962000D02*
X101354500Y-76962000D01*
D33*
X71628000Y-85598000D02*
X82471500Y-85598000D01*
X85090000Y-85598000D02*
X85344000Y-85852000D01*
X85344000Y-91948000D02*
X92572651Y-91948000D01*
D35*
X91632000Y-101284000D02*
X91632000Y-100066000D01*
D33*
X81280000Y-81213000D02*
X81000000Y-80933000D01*
D35*
X93472000Y-103124000D02*
X91632000Y-101284000D01*
D33*
X82471500Y-85598000D02*
X81280000Y-85598000D01*
X85344000Y-91948000D02*
X85344000Y-88392000D01*
D35*
X116840000Y-109728000D02*
X93472000Y-109728000D01*
D37*
X92710000Y-98988000D02*
X92710000Y-91810651D01*
D35*
X116840000Y-106498000D02*
X116840000Y-109728000D01*
D34*
%TO.N,Net-(D1-K)*%
X107950000Y-66294000D02*
X107950000Y-66366500D01*
X107950000Y-61722000D02*
X107950000Y-66294000D01*
X107950000Y-66366500D02*
X103354500Y-70962000D01*
%TO.N,Net-(D1-A)*%
X103354500Y-82962000D02*
X103474000Y-82962000D01*
X103354500Y-74652500D02*
X103354500Y-82962000D01*
X112776000Y-66294000D02*
X115570000Y-66294000D01*
X100436000Y-71734000D02*
X103354500Y-74652500D01*
X103474000Y-82962000D02*
X112776000Y-73660000D01*
X93218000Y-71734000D02*
X100436000Y-71734000D01*
X112776000Y-73660000D02*
X112776000Y-66294000D01*
D36*
%TO.N,HEATER_OUT*%
X115554500Y-83073500D02*
X115554500Y-82962000D01*
D37*
X102184000Y-98422500D02*
X102184000Y-106622500D01*
X102184000Y-98422500D02*
X102184000Y-92634000D01*
X111744500Y-83073500D02*
X115554500Y-83073500D01*
X102184000Y-92634000D02*
X111744500Y-83073500D01*
D34*
%TO.N,Net-(Q1-B)*%
X91948000Y-77978000D02*
X91948000Y-71734000D01*
X87630000Y-82296000D02*
X91948000Y-77978000D01*
%TO.N,Net-(Q2-B)*%
X119380000Y-87122000D02*
X113284000Y-87122000D01*
X115824000Y-57658000D02*
X117348000Y-57658000D01*
X117348000Y-57658000D02*
X119380000Y-59690000D01*
X119380000Y-59690000D02*
X119380000Y-87122000D01*
X113284000Y-87122000D02*
X113284000Y-91623000D01*
D35*
%TO.N,FAN_GND*%
X111840000Y-106498000D02*
X111840000Y-98298000D01*
X115824000Y-94314000D02*
X111840000Y-98298000D01*
X115824000Y-91623000D02*
X115824000Y-94314000D01*
D34*
%TO.N,HEATER_CTL*%
X89916000Y-67818000D02*
X87630000Y-70104000D01*
X103378000Y-61468000D02*
X103378000Y-64262000D01*
X87630000Y-70104000D02*
X87630000Y-74676000D01*
X99822000Y-67818000D02*
X89916000Y-67818000D01*
X103378000Y-64262000D02*
X99822000Y-67818000D01*
%TO.N,+3.3V*%
X75081304Y-81382696D02*
X56539304Y-81382696D01*
X117856000Y-55372000D02*
X112872000Y-55372000D01*
X80611000Y-75853000D02*
X75081304Y-81382696D01*
X113522000Y-48260000D02*
X119888000Y-48260000D01*
X51856000Y-48474000D02*
X52070000Y-48260000D01*
X56539304Y-81382696D02*
X56388000Y-81534000D01*
X112872000Y-59024000D02*
X115570000Y-61722000D01*
X112744000Y-45720000D02*
X112744000Y-47482000D01*
X119888000Y-48260000D02*
X120396000Y-48768000D01*
X51856000Y-68580000D02*
X51856000Y-76699392D01*
X56388000Y-81231392D02*
X56388000Y-85598000D01*
X120396000Y-48768000D02*
X120396000Y-52832000D01*
X51856000Y-68580000D02*
X51856000Y-48474000D01*
X51856000Y-76699392D02*
X56388000Y-81231392D01*
X52070000Y-48260000D02*
X57658000Y-48260000D01*
X57658000Y-48260000D02*
X57658000Y-43688000D01*
X112872000Y-51816000D02*
X112872000Y-59024000D01*
X120396000Y-52832000D02*
X117856000Y-55372000D01*
X112744000Y-47482000D02*
X113522000Y-48260000D01*
X56388000Y-81534000D02*
X56388000Y-85598000D01*
%TO.N,FAN_CTL*%
X103124000Y-57658000D02*
X108204000Y-57658000D01*
X100838000Y-61468000D02*
X100838000Y-59944000D01*
X100838000Y-59944000D02*
X103124000Y-57658000D01*
%TO.N,SCLK*%
X88138000Y-61468000D02*
X88138000Y-64516000D01*
X66548000Y-71755000D02*
X66548000Y-72898000D01*
X82804000Y-69850000D02*
X68453000Y-69850000D01*
X68453000Y-69850000D02*
X66548000Y-71755000D01*
X88138000Y-64516000D02*
X82804000Y-69850000D01*
%TO.N,MOSI*%
X84074000Y-70612000D02*
X90678000Y-64008000D01*
X90678000Y-64008000D02*
X90678000Y-61468000D01*
X70104000Y-70612000D02*
X84074000Y-70612000D01*
X69088000Y-71628000D02*
X70104000Y-70612000D01*
X69088000Y-72898000D02*
X69088000Y-71628000D01*
%TO.N,SS*%
X95758000Y-61468000D02*
X95758000Y-66040000D01*
X95504000Y-66294000D02*
X89408000Y-66294000D01*
X81534000Y-74168000D02*
X64008000Y-74168000D01*
X64008000Y-74168000D02*
X64008000Y-72898000D01*
X95758000Y-66040000D02*
X95504000Y-66294000D01*
X89408000Y-66294000D02*
X81534000Y-74168000D01*
%TO.N,BTN*%
X95758000Y-41402000D02*
X95758000Y-43688000D01*
X107824396Y-47752000D02*
X110618396Y-50546000D01*
X95758000Y-45466000D02*
X98044000Y-47752000D01*
X95758000Y-43688000D02*
X95758000Y-45466000D01*
X113601000Y-50546000D02*
X115125000Y-52070000D01*
X110618396Y-50546000D02*
X113601000Y-50546000D01*
X98044000Y-47752000D02*
X107824396Y-47752000D01*
%TO.N,ENC1*%
X110746792Y-50038000D02*
X107952792Y-47244000D01*
X107952792Y-47244000D02*
X100838000Y-47244000D01*
X116713000Y-50038000D02*
X110746792Y-50038000D01*
X117094000Y-52578000D02*
X117094000Y-50419000D01*
X100838000Y-47244000D02*
X100838000Y-43688000D01*
X117094000Y-50419000D02*
X116713000Y-50038000D01*
%TO.N,ENC2*%
X105283000Y-43688000D02*
X103378000Y-43688000D01*
X111183000Y-49588000D02*
X105283000Y-43688000D01*
X118168698Y-49588000D02*
X111183000Y-49588000D01*
X119125000Y-52069000D02*
X119125000Y-50544302D01*
X119125000Y-50544302D02*
X118168698Y-49588000D01*
D37*
%TO.N,VCC*%
X83642000Y-106622500D02*
X88775500Y-106622500D01*
X88775500Y-106622500D02*
X90232000Y-105166000D01*
X83642000Y-106622500D02*
X83642000Y-98422500D01*
D34*
%TO.N,EXT2*%
X69088000Y-65786000D02*
X69088000Y-67818000D01*
X57658000Y-61468000D02*
X57658000Y-63078000D01*
X60366000Y-65786000D02*
X69088000Y-65786000D01*
X57658000Y-63078000D02*
X60366000Y-65786000D01*
%TO.N,EXT4*%
X65278000Y-64770000D02*
X71120000Y-64770000D01*
X65278000Y-61468000D02*
X65278000Y-64770000D01*
X71120000Y-64770000D02*
X74168000Y-67818000D01*
%TD*%
M02*
