M48
; DRILL file {KiCad 7.0.1} date Thu Apr  6 19:52:18 2023
; FORMAT={-:-/ absolute / inch / decimal}
; #@! TF.CreationDate,2023-04-06T19:52:18-04:00
; #@! TF.GenerationSoftware,Kicad,Pcbnew,7.0.1
; #@! TF.FileFunction,Plated,1,2,PTH
FMAT,2
INCH
; #@! TA.AperFunction,Plated,PTH,ComponentDrill
T1C0.0295
; #@! TA.AperFunction,Plated,PTH,ComponentDrill
T2C0.0315
; #@! TA.AperFunction,Plated,PTH,ComponentDrill
T3C0.0394
; #@! TA.AperFunction,Plated,PTH,ComponentDrill
T4C0.0400
; #@! TA.AperFunction,Plated,PTH,ComponentDrill
T5C0.0402
; #@! TA.AperFunction,Plated,PTH,ComponentDrill
T6C0.0417
; #@! TA.AperFunction,Plated,PTH,ComponentDrill
T7C0.0433
; #@! TA.AperFunction,Plated,PTH,ComponentDrill
T8C0.0512
; #@! TA.AperFunction,Plated,PTH,ComponentDrill
T9C0.1260
%
G90
G05
T1
X3.57Y-2.8242
X3.62Y-2.8242
X3.67Y-2.8242
X4.36Y-1.76
X4.365Y-2.04
X4.4387Y-1.76
X4.4438Y-2.04
X4.5175Y-1.76
X4.5225Y-2.04
X4.5962Y-1.76
X4.6013Y-2.04
X4.675Y-1.76
X4.68Y-2.04
T2
X2.0416Y-2.7
X2.2384Y-2.7
X3.1631Y-3.48
X3.1631Y-3.62
X3.36Y-3.48
X3.36Y-3.62
X3.45Y-2.94
X3.45Y-3.24
X3.65Y-3.4177
X3.65Y-3.6146
X4.25Y-2.43
X4.25Y-2.61
X4.26Y-2.27
X4.55Y-2.43
X4.55Y-2.61
X4.56Y-2.27
T3
X2.42Y-2.67
X2.52Y-2.67
X2.62Y-2.67
X2.72Y-2.67
X2.82Y-2.67
X2.92Y-2.67
X3.189Y-2.9863
X3.189Y-3.0863
X3.189Y-3.1863
T4
X2.12Y-2.87
X2.12Y-3.37
X2.22Y-2.87
X2.22Y-3.37
X2.32Y-2.87
X2.32Y-3.37
X2.42Y-2.87
X2.42Y-3.37
X2.52Y-2.87
X2.52Y-3.37
X2.62Y-2.87
X2.62Y-3.37
X2.72Y-2.87
X2.72Y-3.37
X2.755Y-3.02
X2.82Y-2.87
X2.82Y-2.97
X2.82Y-3.07
X2.82Y-3.37
T5
X2.17Y-1.72
X2.17Y-2.42
X2.27Y-1.72
X2.27Y-2.42
X2.37Y-1.72
X2.37Y-2.42
X2.47Y-1.72
X2.47Y-2.42
X2.57Y-1.72
X2.57Y-2.42
X2.67Y-1.72
X2.67Y-2.42
X2.77Y-1.72
X2.77Y-2.42
X2.87Y-1.72
X2.87Y-2.42
X2.97Y-1.72
X2.97Y-2.42
X3.07Y-1.72
X3.07Y-2.42
X3.17Y-1.72
X3.17Y-2.42
X3.27Y-1.72
X3.27Y-2.42
X3.37Y-1.72
X3.37Y-2.42
X3.47Y-1.72
X3.47Y-2.42
X3.57Y-1.72
X3.57Y-2.42
X3.67Y-1.72
X3.67Y-2.42
X3.77Y-1.72
X3.77Y-2.42
X3.87Y-1.72
X3.87Y-2.42
X3.97Y-1.72
X3.97Y-2.42
X4.0609Y-1.97
X4.0609Y-2.07
X4.0609Y-2.17
X4.07Y-1.72
X4.07Y-2.42
T6
X3.5524Y-4.1404
X3.6076Y-3.9396
T7
X2.0731Y-3.8772
X2.0731Y-4.2
X2.27Y-3.8772
X2.27Y-4.2
X2.5861Y-3.8749
X2.5861Y-4.1977
X2.783Y-3.8749
X2.783Y-4.1977
X3.0961Y-3.8749
X3.0961Y-4.1977
X3.293Y-3.8749
X3.293Y-4.1977
X3.8261Y-3.8749
X3.8261Y-4.1977
X4.023Y-3.8749
X4.023Y-4.1977
X4.4031Y-3.87
X4.4031Y-4.1928
X4.46Y-3.6072
X4.56Y-3.6072
X4.6Y-3.87
X4.6Y-4.1928
X4.66Y-3.6072
T8
X3.9903Y-3.03
X4.0691Y-2.7938
X4.0691Y-3.2662
X4.5494Y-2.7938
X4.5494Y-3.2662
T9
X1.811Y-1.6142
X1.811Y-4.4094
X4.9606Y-1.6142
X4.9606Y-4.4094
T0
M30
