%TF.GenerationSoftware,KiCad,Pcbnew,7.0.1*%
%TF.CreationDate,2023-03-31T16:58:59-04:00*%
%TF.ProjectId,KiwiBoard,4b697769-426f-4617-9264-2e6b69636164,rev?*%
%TF.SameCoordinates,Original*%
%TF.FileFunction,Soldermask,Top*%
%TF.FilePolarity,Negative*%
%FSLAX46Y46*%
G04 Gerber Fmt 4.6, Leading zero omitted, Abs format (unit mm)*
G04 Created by KiCad (PCBNEW 7.0.1) date 2023-03-31 16:58:59*
%MOMM*%
%LPD*%
G01*
G04 APERTURE LIST*
G04 Aperture macros list*
%AMRoundRect*
0 Rectangle with rounded corners*
0 $1 Rounding radius*
0 $2 $3 $4 $5 $6 $7 $8 $9 X,Y pos of 4 corners*
0 Add a 4 corners polygon primitive as box body*
4,1,4,$2,$3,$4,$5,$6,$7,$8,$9,$2,$3,0*
0 Add four circle primitives for the rounded corners*
1,1,$1+$1,$2,$3*
1,1,$1+$1,$4,$5*
1,1,$1+$1,$6,$7*
1,1,$1+$1,$8,$9*
0 Add four rect primitives between the rounded corners*
20,1,$1+$1,$2,$3,$4,$5,0*
20,1,$1+$1,$4,$5,$6,$7,0*
20,1,$1+$1,$6,$7,$8,$9,0*
20,1,$1+$1,$8,$9,$2,$3,0*%
G04 Aperture macros list end*
%ADD10RoundRect,0.050800X0.850000X-0.850000X0.850000X0.850000X-0.850000X0.850000X-0.850000X-0.850000X0*%
%ADD11O,1.801600X1.801600*%
%ADD12RoundRect,0.300800X-0.650000X-1.400000X0.650000X-1.400000X0.650000X1.400000X-0.650000X1.400000X0*%
%ADD13O,1.901600X3.401600*%
%ADD14C,1.691600*%
%ADD15RoundRect,0.050800X-0.525000X-0.750000X0.525000X-0.750000X0.525000X0.750000X-0.525000X0.750000X0*%
%ADD16O,1.151600X1.601600*%
%ADD17RoundRect,0.200800X-0.625000X0.150000X-0.625000X-0.150000X0.625000X-0.150000X0.625000X0.150000X0*%
%ADD18RoundRect,0.300800X-0.650000X0.350000X-0.650000X-0.350000X0.650000X-0.350000X0.650000X0.350000X0*%
%ADD19RoundRect,0.050800X0.800000X-0.800000X0.800000X0.800000X-0.800000X0.800000X-0.800000X-0.800000X0*%
%ADD20C,1.701600*%
%ADD21RoundRect,0.050800X-0.952500X-1.000000X0.952500X-1.000000X0.952500X1.000000X-0.952500X1.000000X0*%
%ADD22O,2.006600X2.101600*%
%ADD23O,1.701600X1.701600*%
%ADD24RoundRect,0.050800X-0.800000X-0.800000X0.800000X-0.800000X0.800000X0.800000X-0.800000X0.800000X0*%
%ADD25RoundRect,0.050800X0.762000X-0.762000X0.762000X0.762000X-0.762000X0.762000X-0.762000X-0.762000X0*%
%ADD26C,1.625600*%
%ADD27O,1.901600X1.901600*%
%ADD28O,1.601600X1.601600*%
%ADD29RoundRect,0.050800X0.850000X-1.750000X0.850000X1.750000X-0.850000X1.750000X-0.850000X-1.750000X0*%
%ADD30RoundRect,0.050800X1.750000X0.850000X-1.750000X0.850000X-1.750000X-0.850000X1.750000X-0.850000X0*%
%ADD31RoundRect,0.050800X1.150000X-0.750000X1.150000X0.750000X-1.150000X0.750000X-1.150000X-0.750000X0*%
%ADD32O,2.401600X1.601600*%
%ADD33RoundRect,0.050800X1.250000X-1.250000X1.250000X1.250000X-1.250000X1.250000X-1.250000X-1.250000X0*%
%ADD34O,2.601600X2.601600*%
G04 APERTURE END LIST*
D10*
%TO.C,EXPANSION*%
X61468000Y-67818000D03*
D11*
X64008000Y-67818000D03*
X66548000Y-67818000D03*
X69088000Y-67818000D03*
X71628000Y-67818000D03*
X74168000Y-67818000D03*
%TD*%
D12*
%TO.C,J1*%
X78642000Y-98422500D03*
X78642000Y-106622500D03*
D13*
X83642000Y-98422500D03*
X83642000Y-106622500D03*
%TD*%
D14*
%TO.C,F1*%
X90232000Y-105166000D03*
X91632000Y-100066000D03*
%TD*%
D15*
%TO.C,Q1*%
X90678000Y-71734000D03*
D16*
X91948000Y-71734000D03*
X93218000Y-71734000D03*
%TD*%
D17*
%TO.C,J5*%
X110943000Y-43458000D03*
X110943000Y-44458000D03*
X110943000Y-45458000D03*
X110943000Y-46458000D03*
D18*
X113468000Y-42158000D03*
X113468000Y-47758000D03*
%TD*%
D19*
%TO.C,C4*%
X92710000Y-91810651D03*
D20*
X92710000Y-86810651D03*
%TD*%
%TO.C,C3*%
X51856000Y-68580000D03*
X56856000Y-68580000D03*
%TD*%
%TO.C,C1*%
X85344000Y-91948000D03*
X80344000Y-91948000D03*
%TD*%
D21*
%TO.C,Q2*%
X113284000Y-91623000D03*
D22*
X115824000Y-91623000D03*
X118364000Y-91623000D03*
%TD*%
D20*
%TO.C,C2*%
X85344000Y-88392000D03*
X80344000Y-88392000D03*
%TD*%
%TO.C,R1*%
X87630000Y-82296000D03*
D23*
X87630000Y-74676000D03*
%TD*%
D24*
%TO.C,D1*%
X107950000Y-66294000D03*
D23*
X115570000Y-66294000D03*
%TD*%
D12*
%TO.C,J3*%
X111840000Y-98298000D03*
X111840000Y-106498000D03*
D13*
X116840000Y-98298000D03*
X116840000Y-106498000D03*
%TD*%
D25*
%TO.C,U4*%
X53848000Y-72898000D03*
D26*
X56388000Y-72898000D03*
X58928000Y-72898000D03*
X61468000Y-72898000D03*
X64008000Y-72898000D03*
X66548000Y-72898000D03*
X69088000Y-72898000D03*
X71628000Y-72898000D03*
D25*
X71628000Y-85598000D03*
D26*
X69088000Y-85598000D03*
X66548000Y-85598000D03*
X64008000Y-85598000D03*
X61468000Y-85598000D03*
X58928000Y-85598000D03*
X56388000Y-85598000D03*
X53848000Y-85598000D03*
X71628000Y-77978000D03*
X71628000Y-75438000D03*
X69977000Y-76708000D03*
%TD*%
D20*
%TO.C,R3*%
X115824000Y-57658000D03*
D23*
X108204000Y-57658000D03*
%TD*%
D27*
%TO.C,U1*%
X55248000Y-55303000D03*
D28*
X58278000Y-55003000D03*
X58278000Y-50153000D03*
D27*
X55248000Y-49853000D03*
D11*
X55118000Y-61468000D03*
D29*
X55118000Y-62368000D03*
D11*
X57658000Y-61468000D03*
D29*
X57658000Y-62368000D03*
D10*
X60198000Y-61468000D03*
D29*
X60198000Y-62368000D03*
D11*
X62738000Y-61468000D03*
D29*
X62738000Y-62368000D03*
D11*
X65278000Y-61468000D03*
D29*
X65278000Y-62368000D03*
D11*
X67818000Y-61468000D03*
D29*
X67818000Y-62368000D03*
D11*
X70358000Y-61468000D03*
D29*
X70358000Y-62368000D03*
D10*
X72898000Y-61468000D03*
D29*
X72898000Y-62368000D03*
D11*
X75438000Y-61468000D03*
D29*
X75438000Y-62368000D03*
D11*
X77978000Y-61468000D03*
D29*
X77978000Y-62368000D03*
D11*
X80518000Y-61468000D03*
D29*
X80518000Y-62368000D03*
D11*
X83058000Y-61468000D03*
D29*
X83058000Y-62368000D03*
D10*
X85598000Y-61468000D03*
D29*
X85598000Y-62368000D03*
D11*
X88138000Y-61468000D03*
D29*
X88138000Y-62368000D03*
D11*
X90678000Y-61468000D03*
D29*
X90678000Y-62368000D03*
D11*
X93218000Y-61468000D03*
D29*
X93218000Y-62368000D03*
D11*
X95758000Y-61468000D03*
D29*
X95758000Y-62368000D03*
D10*
X98298000Y-61468000D03*
D29*
X98298000Y-62368000D03*
D11*
X100838000Y-61468000D03*
D29*
X100838000Y-62368000D03*
D11*
X103378000Y-61468000D03*
D29*
X103378000Y-62368000D03*
D11*
X103378000Y-43688000D03*
D29*
X103378000Y-42788000D03*
D11*
X100838000Y-43688000D03*
D29*
X100838000Y-42788000D03*
D10*
X98298000Y-43688000D03*
D29*
X98298000Y-42788000D03*
D11*
X95758000Y-43688000D03*
D29*
X95758000Y-42788000D03*
D11*
X93218000Y-43688000D03*
D29*
X93218000Y-42788000D03*
D11*
X90678000Y-43688000D03*
D29*
X90678000Y-42788000D03*
D11*
X88138000Y-43688000D03*
D29*
X88138000Y-42788000D03*
D10*
X85598000Y-43688000D03*
D29*
X85598000Y-42788000D03*
D11*
X83058000Y-43688000D03*
D29*
X83058000Y-42788000D03*
D11*
X80518000Y-43688000D03*
D29*
X80518000Y-42788000D03*
D11*
X77978000Y-43688000D03*
D29*
X77978000Y-42788000D03*
D11*
X75438000Y-43688000D03*
D29*
X75438000Y-42788000D03*
D10*
X72898000Y-43688000D03*
D29*
X72898000Y-42788000D03*
D11*
X70358000Y-43688000D03*
D29*
X70358000Y-42788000D03*
D11*
X67818000Y-43688000D03*
D29*
X67818000Y-42788000D03*
D11*
X65278000Y-43688000D03*
D29*
X65278000Y-42788000D03*
D11*
X62738000Y-43688000D03*
D29*
X62738000Y-42788000D03*
D10*
X60198000Y-43688000D03*
D29*
X60198000Y-42788000D03*
D11*
X57658000Y-43688000D03*
D29*
X57658000Y-42788000D03*
D11*
X55118000Y-43688000D03*
D29*
X55118000Y-42788000D03*
D11*
X103148000Y-55118000D03*
D30*
X104048000Y-55118000D03*
D10*
X103148000Y-52578000D03*
D30*
X104048000Y-52578000D03*
D11*
X103148000Y-50038000D03*
D30*
X104048000Y-50038000D03*
%TD*%
D12*
%TO.C,J2*%
X97184000Y-98422500D03*
X97184000Y-106622500D03*
D13*
X102184000Y-98422500D03*
X102184000Y-106622500D03*
%TD*%
D10*
%TO.C,J6*%
X109474000Y-52578000D03*
D11*
X112014000Y-52578000D03*
X114554000Y-52578000D03*
X117094000Y-52578000D03*
X119634000Y-52578000D03*
%TD*%
D12*
%TO.C,J4*%
X53322000Y-97660500D03*
X53322000Y-105860500D03*
D13*
X58322000Y-97660500D03*
X58322000Y-105860500D03*
X63322000Y-97660500D03*
X63322000Y-105860500D03*
X68322000Y-97660500D03*
X68322000Y-105860500D03*
%TD*%
D31*
%TO.C,U2*%
X82471500Y-80933000D03*
D32*
X82471500Y-78393000D03*
X82471500Y-75853000D03*
%TD*%
D33*
%TO.C,K1*%
X101354500Y-76962000D03*
D34*
X103354500Y-82962000D03*
X115554500Y-82962000D03*
X115554500Y-70962000D03*
X103354500Y-70962000D03*
%TD*%
D20*
%TO.C,R2*%
X115570000Y-61722000D03*
D23*
X107950000Y-61722000D03*
%TD*%
M02*
